<?xml version="1.0" encoding="UTF-8" standalone="no"?>
<svg
   width="24"
   height="24"
   fill="currentColor"
   class="bi bi-graph-up"
   viewBox="0 0 24 24"
   version="1.1"
   id="svg4"
   xmlns:xlink="http://www.w3.org/1999/xlink"
   xmlns="http://www.w3.org/2000/svg"
   xmlns:svg="http://www.w3.org/2000/svg">
  <defs
     id="defs8">
    <pattern
       xlink:href="#Strips2_1"
       id="pattern9770"
       patternTransform="matrix(2.1213203,2.1213203,-2.1213203,2.1213203,0,0)"
       x="1"
       y="0"
       preserveAspectRatio="xMidYMid" />
    <pattern
       patternUnits="userSpaceOnUse"
       width="1.5"
       height="1"
       patternTransform="translate(0,0) scale(10,10)"
       id="Strips2_1">
      <rect
         style="fill:black;stroke:none"
         x="0"
         y="-0.5"
         width="1"
         height="2"
         id="rect8696" />
    </pattern>
    <mask
       id="mask0_136_6952"
       maskUnits="userSpaceOnUse"
       x="0"
       y="0"
       width="24"
       height="24">
      <rect
         width="24"
         height="24"
         fill="#d9d9d9"
         id="rect1"
         x="0"
         y="0" />
    </mask>
  </defs>
  <path
     id="rect5157"
     style="fill:url(#pattern9770);fill-opacity:1;stroke-width:0.229693;stroke-dasharray:0.918775, 0.459387"
     d="M 0.0962468,3.8515719 6.0803297,3.8196412 8.9879799,9.963388 24,15.443533 23.999997,24 H 0.03850827 Z" />
  <g
     mask="url(#mask0_136_6952)"
     id="g2"
     transform="matrix(0,1.2903226,-1,0,30.248599,-5.6596336)"
     style="fill:#000000;fill-opacity:1">
    <path
       d="m 10.5,16.3 c -0.1333,0 -0.25,-0.0458 -0.35,-0.1375 C 10.05,16.0708 10,15.95 10,15.8 V 8.20001 c 0,-0.15 0.05,-0.27083 0.15,-0.3625 0.1,-0.09166 0.2167,-0.1375 0.35,-0.1375 0.0333,0 0.15,0.05 0.35,0.15 l 3.625,3.62499 c 0.0833,0.0833 0.1417,0.1667 0.175,0.25 0.0333,0.0833 0.05,0.175 0.05,0.275 0,0.1 -0.0167,0.1917 -0.05,0.275 -0.0333,0.0833 -0.0917,0.1667 -0.175,0.25 L 10.85,16.15 C 10.8,16.2 10.7458,16.2375 10.6875,16.2625 10.6292,16.2875 10.5667,16.3 10.5,16.3 Z"
       fill="#1c1b1f"
       id="path1"
       style="fill:#000000;fill-opacity:1" />
  </g>
</svg>
